<?xml version="1.0" encoding="utf-8"?>
<!-- Generator: Adobe Illustrator 28.1.0, SVG Export Plug-In . SVG Version: 6.00 Build 0)  -->
<svg version="1.1" id="OBJECTS" xmlns="http://www.w3.org/2000/svg" xmlns:xlink="http://www.w3.org/1999/xlink" x="0px" y="0px"
	 viewBox="0 0 189.1 183.3" style="enable-background:new 0 0 189.1 183.3;" xml:space="preserve">
<style type="text/css">
	.st0{fill:#FFFFFF;}
	.st1{font-family:'Cookie-Regular';}
	.st2{font-size:32px;}
	.st3{fill:#E47A2E;}
	.st4{fill:#E2BD75;}
	.st5{fill:#CC6825;}
	.st6{font-size:19px;}
	.st7{font-family:'Bebas-Regular';}
	.st8{font-size:45.655px;}
	.st9{letter-spacing:4;}
</style>
<text transform="matrix(1 0 0 1 22.83 146.11)" class="st0 st1 st2">Save the Date</text>
<g>
	<path class="st3" d="M97.9,34.7c0.3,0,0.7,0,1.1,0c2.3,0.2,5,2.3,5.3,6.3v1.3c-0.3,3.8-3.2,8.5-11.8,14.4
		c-8.6-5.9-11.5-10.6-11.8-14.4V41c0.3-4,3-6.1,5.3-6.3c0.4,0,0.7,0,1.1,0c2.7,0,4,1.1,5.4,2.8C93.9,35.8,95.2,34.7,97.9,34.7"/>
	<path class="st3" d="M72.4,38.4c0.2,0,0.5,0,0.7,0c1.5,0.2,3.3,1.5,3.5,4.2v0.9c-0.2,2.5-2.2,5.6-7.8,9.5c-5.7-3.9-7.6-7-7.8-9.5
		v-0.9c0.2-2.6,2-4,3.5-4.2c0.2,0,0.5,0,0.7,0c1.8,0,2.6,0.8,3.6,1.9C69.8,39.2,70.6,38.4,72.4,38.4"/>
	<path class="st3" d="M119.5,38.4c0.2,0,0.5,0,0.7,0c1.5,0.2,3.3,1.5,3.5,4.2v0.9c-0.2,2.5-2.2,5.6-7.8,9.5c-5.7-3.9-7.6-7-7.8-9.5
		v-0.9c0.2-2.6,2-4,3.5-4.2c0.2,0,0.5,0,0.7,0c1.8,0,2.6,0.8,3.6,1.9C116.9,39.2,117.8,38.4,119.5,38.4"/>
</g>
<g>
	<path class="st4" d="M20.1,116.6c0,0.8-0.7,1.5-1.5,1.5s-1.5-0.7-1.5-1.5s0.7-1.5,1.5-1.5S20.1,115.8,20.1,116.6z"/>
	<ellipse class="st4" cx="24.5" cy="116.6" rx="1.5" ry="1.5"/>
	<ellipse class="st4" cx="30.4" cy="116.6" rx="1.5" ry="1.5"/>
	<ellipse class="st4" cx="36.3" cy="116.6" rx="1.5" ry="1.5"/>
	<ellipse class="st4" cx="42.2" cy="116.6" rx="1.5" ry="1.5"/>
	<path class="st4" d="M49.6,116.6c0,0.8-0.7,1.5-1.5,1.5s-1.5-0.7-1.5-1.5s0.7-1.5,1.5-1.5S49.6,115.8,49.6,116.6z"/>
	<path class="st4" d="M55.5,116.6c0,0.8-0.7,1.5-1.5,1.5s-1.5-0.7-1.5-1.5s0.7-1.5,1.5-1.5S55.5,115.8,55.5,116.6z"/>
	<path class="st4" d="M61.4,116.6c0,0.8-0.7,1.5-1.5,1.5s-1.5-0.7-1.5-1.5s0.7-1.5,1.5-1.5S61.4,115.8,61.4,116.6z"/>
	<path class="st4" d="M67.3,116.6c0,0.8-0.7,1.5-1.5,1.5s-1.5-0.7-1.5-1.5s0.7-1.5,1.5-1.5S67.3,115.8,67.3,116.6z"/>
	<path class="st4" d="M73.2,116.6c0,0.8-0.7,1.5-1.5,1.5s-1.5-0.7-1.5-1.5s0.7-1.5,1.5-1.5S73.2,115.8,73.2,116.6z"/>
	<path class="st4" d="M79.1,116.6c0,0.8-0.7,1.5-1.5,1.5s-1.5-0.7-1.5-1.5s0.7-1.5,1.5-1.5S79.1,115.8,79.1,116.6z"/>
	<path class="st4" d="M85,116.6c0,0.8-0.7,1.5-1.5,1.5s-1.5-0.7-1.5-1.5s0.7-1.5,1.5-1.5S85,115.8,85,116.6z"/>
	<path class="st4" d="M90.9,116.6c0,0.8-0.7,1.5-1.5,1.5s-1.5-0.7-1.5-1.5s0.7-1.5,1.5-1.5S90.9,115.8,90.9,116.6z"/>
	<path class="st4" d="M96.8,116.6c0,0.8-0.7,1.5-1.5,1.5s-1.5-0.7-1.5-1.5s0.7-1.5,1.5-1.5S96.8,115.8,96.8,116.6z"/>
	<path class="st4" d="M102.7,116.6c0,0.8-0.7,1.5-1.5,1.5s-1.5-0.7-1.5-1.5s0.7-1.5,1.5-1.5S102.7,115.8,102.7,116.6z"/>
	<path class="st4" d="M108.6,116.6c0,0.8-0.7,1.5-1.5,1.5s-1.5-0.7-1.5-1.5s0.7-1.5,1.5-1.5S108.6,115.8,108.6,116.6z"/>
	<ellipse class="st4" cx="113" cy="116.6" rx="1.5" ry="1.5"/>
	<ellipse class="st4" cx="118.9" cy="116.6" rx="1.5" ry="1.5"/>
	<ellipse class="st4" cx="124.8" cy="116.6" rx="1.5" ry="1.5"/>
	<ellipse class="st4" cx="130.7" cy="116.6" rx="1.5" ry="1.5"/>
	<ellipse class="st4" cx="136.6" cy="116.6" rx="1.5" ry="1.5"/>
	<ellipse class="st4" cx="142.5" cy="116.6" rx="1.5" ry="1.5"/>
	<ellipse class="st4" cx="148.4" cy="116.6" rx="1.5" ry="1.5"/>
	<ellipse class="st4" cx="154.3" cy="116.6" rx="1.5" ry="1.5"/>
	<ellipse class="st4" cx="160.2" cy="116.6" rx="1.5" ry="1.5"/>
	<ellipse class="st4" cx="166.1" cy="116.6" rx="1.5" ry="1.5"/>
</g>
<g>
	<path class="st3" d="M117.8,156.9c3.3-2.3,7.7-2.6,11.4-0.7c3.6,1.9,5.7,5.9,5.9,9.9s-1.7,8.2-4.8,11.1c-3.4,3.2-8,4.7-12.6,4.9
		c-5.2,0.2-10.5-0.9-15.6-2.1s-10.2-2.8-15.1-4.7c-9.2-3.5-18.4-9-28.6-8.4c-4.2,0.2-9.5,2-10.2,6.8c-0.2,1.9,0.5,3.9,2,5
		c1.4,1.1,3.5,1.1,4.9,0c0.7-0.5,1.2-1.2,1.5-2s-1-1.1-1.3-0.4c-0.7,1.8-3.2,2-4.5,0.8c-1.6-1.5-1.4-4-0.2-5.6
		c1.4-1.9,3.8-2.8,6-3.1c2.5-0.4,5.1-0.3,7.5,0.1c4.9,0.8,9.7,2.6,14.2,4.5s9.5,3.9,14.4,5.5s10,2.9,15.1,3.7s10.1,1.3,15.1,0.1
		c7.9-2,14.4-9.1,13.4-17.6c-0.5-3.9-2.6-7.6-6-9.6c-3.2-1.8-7.4-2.1-10.8-0.4c-0.8,0.4-1.5,0.9-2.1,1.6
		C117.4,156.7,117.6,157,117.8,156.9L117.8,156.9L117.8,156.9z"/>
	<path class="st3" d="M49.8,166c2.2-2.1,4.8-3.6,7.8-4.4s6-0.9,8.9-0.5c6.9,0.8,13.2,4.2,19.2,7.4c6.1,3.3,12.3,6.8,19.2,8.1
		c3.3,0.6,6.9,0.8,10.1-0.2c2.8-0.9,5.4-3.1,5.9-6.2s-1.4-6.2-4.7-6.5c-1.5-0.1-2.8,0.5-3.7,1.7c-0.4,0.6-0.7,1.2-0.7,1.9
		c-0.1,0.7,0.1,1.1,0.7,1.6c0,0,0.1,0,0.1,0c0.1-0.5,0.3-1,0.4-1.5c0.1-0.6,0.4-1.2,0.9-1.7c1-1,2.6-1.1,3.8-0.4
		c2.8,1.5,2.3,5.5,0.4,7.5c-2.2,2.4-5.6,2.8-8.7,2.8s-6.3-0.6-9.4-1.6c-11.8-3.8-21.8-13.1-34.5-13.7c-5.6-0.3-12,1.3-15.9,5.7
		C49.5,166,49.7,166.2,49.8,166L49.8,166L49.8,166z"/>
</g>
<g>
	<g>
		<g>
			<path class="st5" d="M184.7,23.3c-8.1-3.6-16.8-6.7-25.3-9.2c-2.8,9.4-4.2,14.1-7.1,23.5c9.2,2.8,13.7,4.4,22.6,8.3
				c0.1-5.3,0.1-8,0-13.3C178.8,28.7,180.7,26.9,184.7,23.3L184.7,23.3z"/>
			<path class="st5" d="M172.6,18.4c-5.2-1.9-7.9-2.8-13.2-4.4c-2.8,9.4-4.2,14.1-7.1,23.5c5.2-0.1,7.9-0.1,13.2,0.1
				C168.4,29.9,169.8,26.1,172.6,18.4L172.6,18.4z"/>
		</g>
		<g>
			<path class="st5" d="M0,23.3c8.1-3.6,16.8-6.7,25.3-9.2c2.8,9.4,4.2,14.1,7.1,23.5c-9.2,2.8-13.7,4.4-22.6,8.3
				c-0.1-5.3-0.1-8,0-13.3C6,28.7,4,26.9,0,23.3L0,23.3z"/>
			<path class="st5" d="M12.1,18.4c5.2-1.9,7.9-2.8,13.2-4.4c2.8,9.4,4.2,14.1,7.1,23.5c-5.2-0.1-7.9-0.1-13.2,0.1
				C16.3,29.9,14.9,26.1,12.1,18.4L12.1,18.4z"/>
		</g>
		<path class="st3" d="M165.6,37.6c-49.2-16.5-97.2-16.5-146.4,0c-3.5-9.5-5.2-14.2-8.7-23.7c54.6-18.5,109.2-18.5,163.9,0
			C170.8,23.4,169,28.1,165.6,37.6L165.6,37.6z"/>
	</g>
	<text transform="matrix(0.97 -0.2431 0.2431 0.97 33.29 24.89)" class="st1 st6">W</text>
	<text transform="matrix(0.9799 -0.1994 0.1994 0.9799 45.91 21.81)" class="st1 st6">e</text>
	<text transform="matrix(0.9836 -0.1805 0.1805 0.9836 51.2999 20.73)" class="st1 st6">’</text>
	<text transform="matrix(0.9892 -0.1463 0.1463 0.9892 57.56 19.63)" class="st1 st6">r</text>
	<text transform="matrix(0.9924 -0.1229 0.1229 0.9924 62.3 18.92)" class="st1 st6">e</text>
	<text transform="matrix(0.997 -7.793710e-02 7.793710e-02 0.997 71.48 17.85)" class="st1 st6">g</text>
	<text transform="matrix(0.9987 -5.007000e-02 5.007000e-02 0.9987 78.47 17.31)" class="st1 st6">e</text>
	<text transform="matrix(0.9996 -2.949179e-02 2.949179e-02 0.9996 83.97 17.05)" class="st1 st6">t</text>
	<text transform="matrix(0.9999 -1.256604e-02 1.256604e-02 0.9999 87.76 16.93)" class="st1 st6">t</text>
	<text transform="matrix(1 3.141588e-03 -3.141588e-03 1 91.54 16.89)" class="st1 st6">i</text>
	<text transform="matrix(0.9997 2.617695e-02 -2.617695e-02 0.9997 94.82 16.8799)" class="st1 st6">n</text>
	<text transform="matrix(0.9983 5.756403e-02 -5.756403e-02 0.9983 101.79 17.06)" class="st1 st6">g</text>
	<text transform="matrix(0.9935 0.1137 -0.1137 0.9935 112.47 17.73)" class="st1 st6">m</text>
	<text transform="matrix(0.9881 0.154 -0.154 0.9881 122.59 18.91)" class="st1 st6">a</text>
	<text transform="matrix(0.9832 0.1826 -0.1826 0.9832 129.7099 20.04)" class="st1 st6">r</text>
	<text transform="matrix(0.9787 0.2055 -0.2055 0.9787 134.4299 20.92)" class="st1 st6">r</text>
	<text transform="matrix(0.9743 0.2253 -0.2253 0.9743 139.1101 21.9099)" class="st1 st6">i</text>
	<text transform="matrix(0.969 0.247 -0.247 0.969 142.3099 22.63)" class="st1 st6">e</text>
	<text transform="matrix(0.9601 0.2795 -0.2795 0.9601 147.6501 23.97)" class="st1 st6">d</text>
</g>
<text transform="matrix(1 0 0 1 20.0601 102.83)" class="st0 st7 st8 st9">13/05/24</text>
</svg>
